<svg width="1440" height="1024" viewBox="0 0 1440 1024" fill="none" xmlns="http://www.w3.org/2000/svg">
<g id="Desktop - 6" clip-path="url(#clip0_71_23)">
<path id="Vector 6" d="M-1 549.5L260.5 376C590.9 170.8 535.833 314.167 467.5 437.5C186.3 949.5 552.333 790.5 704 651C1212.5 157.5 1248.5 309 970.5 712.5C748.1 1035.3 1199.5 822.167 1444.5 680" stroke="black"/>
<g id="Group 1">
<path id="dotted1" d="M-4.5 419.5L267.5 241C663.5 14.6001 662.167 214.5 610.5 359.5C299 932.5 580.015 639.525 690.5 549.5C1095.5 219.5 1143.5 259.5 1190.5 286C1237.5 312.5 1199 480.5 1119 587.5C790.458 1026.93 1300 671 1447 578" stroke="black"/>
<path id="dotted2" d="M-6.5 686.5L254 509.5C427.5 369.5 418.215 395.264 372.5 484.5C122.5 972.5 480.127 936.808 617.5 812.5C1159 322.5 1010.96 527.5 909 679.5C610.5 1124.5 1086 943 1445.5 807" stroke="black"/>
</g>
</g>
<defs>
<clipPath id="clip0_71_23">
<rect width="1440" height="1024" fill="white"/>
</clipPath>
</defs>
</svg>
