<svg id="visual" viewBox="0 0 2560 1440" width="2560" height="1440" xmlns="http://www.w3.org/2000/svg" xmlns:xlink="http://www.w3.org/1999/xlink" version="1.1"><rect x="0" y="0" width="2560" height="1440" fill="#001220"></rect><path d="M0 864L61 885.2C122 906.3 244 948.7 365.8 970C487.7 991.3 609.3 991.7 731.2 978.3C853 965 975 938 1097 927.5C1219 917 1341 923 1463 946.7C1585 970.3 1707 1011.7 1828.8 1026.3C1950.7 1041 2072.3 1029 2194.2 997.8C2316 966.7 2438 916.3 2499 891.2L2560 866L2560 1441L2499 1441C2438 1441 2316 1441 2194.2 1441C2072.3 1441 1950.7 1441 1828.8 1441C1707 1441 1585 1441 1463 1441C1341 1441 1219 1441 1097 1441C975 1441 853 1441 731.2 1441C609.3 1441 487.7 1441 365.8 1441C244 1441 122 1441 61 1441L0 1441Z" fill="#fa7268"></path><path d="M0 977L61 1003.8C122 1030.7 244 1084.3 365.8 1084.8C487.7 1085.3 609.3 1032.7 731.2 1013.2C853 993.7 975 1007.3 1097 1017.5C1219 1027.7 1341 1034.3 1463 1038.8C1585 1043.3 1707 1045.7 1828.8 1042.3C1950.7 1039 2072.3 1030 2194.2 1039.3C2316 1048.7 2438 1076.3 2499 1090.2L2560 1104L2560 1441L2499 1441C2438 1441 2316 1441 2194.2 1441C2072.3 1441 1950.7 1441 1828.8 1441C1707 1441 1585 1441 1463 1441C1341 1441 1219 1441 1097 1441C975 1441 853 1441 731.2 1441C609.3 1441 487.7 1441 365.8 1441C244 1441 122 1441 61 1441L0 1441Z" fill="#ef5f67"></path><path d="M0 1118L61 1113.3C122 1108.7 244 1099.3 365.8 1106.3C487.7 1113.3 609.3 1136.7 731.2 1145.2C853 1153.7 975 1147.3 1097 1133.5C1219 1119.7 1341 1098.3 1463 1108.8C1585 1119.3 1707 1161.7 1828.8 1162.5C1950.7 1163.3 2072.3 1122.7 2194.2 1118.3C2316 1114 2438 1146 2499 1162L2560 1178L2560 1441L2499 1441C2438 1441 2316 1441 2194.2 1441C2072.3 1441 1950.7 1441 1828.8 1441C1707 1441 1585 1441 1463 1441C1341 1441 1219 1441 1097 1441C975 1441 853 1441 731.2 1441C609.3 1441 487.7 1441 365.8 1441C244 1441 122 1441 61 1441L0 1441Z" fill="#e34c67"></path><path d="M0 1164L61 1170.2C122 1176.3 244 1188.7 365.8 1187.3C487.7 1186 609.3 1171 731.2 1170.5C853 1170 975 1184 1097 1188.8C1219 1193.7 1341 1189.3 1463 1195.5C1585 1201.7 1707 1218.3 1828.8 1215.7C1950.7 1213 2072.3 1191 2194.2 1188.7C2316 1186.3 2438 1203.7 2499 1212.3L2560 1221L2560 1441L2499 1441C2438 1441 2316 1441 2194.2 1441C2072.3 1441 1950.7 1441 1828.8 1441C1707 1441 1585 1441 1463 1441C1341 1441 1219 1441 1097 1441C975 1441 853 1441 731.2 1441C609.3 1441 487.7 1441 365.8 1441C244 1441 122 1441 61 1441L0 1441Z" fill="#d53867"></path><path d="M0 1273L61 1282.8C122 1292.7 244 1312.3 365.8 1322.8C487.7 1333.3 609.3 1334.7 731.2 1334.2C853 1333.7 975 1331.3 1097 1323.5C1219 1315.7 1341 1302.3 1463 1297.3C1585 1292.3 1707 1295.7 1828.8 1303C1950.7 1310.3 2072.3 1321.7 2194.2 1321.5C2316 1321.3 2438 1309.7 2499 1303.8L2560 1298L2560 1441L2499 1441C2438 1441 2316 1441 2194.2 1441C2072.3 1441 1950.7 1441 1828.8 1441C1707 1441 1585 1441 1463 1441C1341 1441 1219 1441 1097 1441C975 1441 853 1441 731.2 1441C609.3 1441 487.7 1441 365.8 1441C244 1441 122 1441 61 1441L0 1441Z" fill="#c62368"></path></svg>