<svg width="1440" height="1024" viewBox="0 0 1440 1024" fill="none" xmlns="http://www.w3.org/2000/svg">
<g id="Desktop - 7" clip-path="url(#clip0_76_43)">
<path id="Vector 6" d="M-1009 789.019L-426.436 690.6C309.622 574.199 81.7315 620.639 -70.5 690.6C-696.951 981.035 -583.5 1103 561.583 846.596C1374.5 664.569 1452 681.5 1452 681.5C1452 681.5 1653.19 945.393 2199 864.748" stroke="black"/>
<g id="Group 1">
<path id="dotted1" d="M-1016.54 714.644L-410.56 613.116C471.681 484.342 90.1073 661.526 -25 744C-718.986 1069.91 285.688 839.791 531.834 788.586C841.5 724.168 1347.5 628 1442.5 628C1537.5 628 1664.71 749.34 1486.48 810.2C754.529 1060.14 1883.05 858.452 2204.97 799.109" stroke="black"/>
<path id="dotted2" d="M-1021 866.51L-440.637 765.835C-54.0988 686.205 -74.7841 700.859 -176.632 751.615C-733.603 1029.18 -339.5 1101.9 369.199 938.177C1327.5 716.788 2207.87 631.972 1615 807.5C932.713 1009.5 1401.82 1014.3 2215 938.177" stroke="black"/>
</g>
</g>
<defs>
<clipPath id="clip0_76_43">
<rect width="1440" height="1024" fill="white"/>
</clipPath>
</defs>
</svg>
