<svg id="visual" viewBox="0 0 1920 1080" width="1920" height="1080" xmlns="http://www.w3.org/2000/svg" xmlns:xlink="http://www.w3.org/1999/xlink" version="1.1"><rect x="0" y="0" width="1920" height="1080" fill="#210000"></rect><path d="M0 784L45.7 779.2C91.3 774.3 182.7 764.7 274.2 739.7C365.7 714.7 457.3 674.3 548.8 666.8C640.3 659.3 731.7 684.7 823 684C914.3 683.3 1005.7 656.7 1097 670.8C1188.3 685 1279.7 740 1371.2 749.3C1462.7 758.7 1554.3 722.3 1645.8 715.3C1737.3 708.3 1828.7 730.7 1874.3 741.8L1920 753L1920 1081L1874.3 1081C1828.7 1081 1737.3 1081 1645.8 1081C1554.3 1081 1462.7 1081 1371.2 1081C1279.7 1081 1188.3 1081 1097 1081C1005.7 1081 914.3 1081 823 1081C731.7 1081 640.3 1081 548.8 1081C457.3 1081 365.7 1081 274.2 1081C182.7 1081 91.3 1081 45.7 1081L0 1081Z" fill="#70ae91"></path><path d="M0 727L45.7 726C91.3 725 182.7 723 274.2 735.5C365.7 748 457.3 775 548.8 777.5C640.3 780 731.7 758 823 767.7C914.3 777.3 1005.7 818.7 1097 817.3C1188.3 816 1279.7 772 1371.2 748.2C1462.7 724.3 1554.3 720.7 1645.8 721C1737.3 721.3 1828.7 725.7 1874.3 727.8L1920 730L1920 1081L1874.3 1081C1828.7 1081 1737.3 1081 1645.8 1081C1554.3 1081 1462.7 1081 1371.2 1081C1279.7 1081 1188.3 1081 1097 1081C1005.7 1081 914.3 1081 823 1081C731.7 1081 640.3 1081 548.8 1081C457.3 1081 365.7 1081 274.2 1081C182.7 1081 91.3 1081 45.7 1081L0 1081Z" fill="#599f7e"></path><path d="M0 900L45.7 901C91.3 902 182.7 904 274.2 890C365.7 876 457.3 846 548.8 827.7C640.3 809.3 731.7 802.7 823 817.5C914.3 832.3 1005.7 868.7 1097 889.3C1188.3 910 1279.7 915 1371.2 901.8C1462.7 888.7 1554.3 857.3 1645.8 852.8C1737.3 848.3 1828.7 870.7 1874.3 881.8L1920 893L1920 1081L1874.3 1081C1828.7 1081 1737.3 1081 1645.8 1081C1554.3 1081 1462.7 1081 1371.2 1081C1279.7 1081 1188.3 1081 1097 1081C1005.7 1081 914.3 1081 823 1081C731.7 1081 640.3 1081 548.8 1081C457.3 1081 365.7 1081 274.2 1081C182.7 1081 91.3 1081 45.7 1081L0 1081Z" fill="#40916c"></path><path d="M0 963L45.7 959.7C91.3 956.3 182.7 949.7 274.2 940C365.7 930.3 457.3 917.7 548.8 918.8C640.3 920 731.7 935 823 933.8C914.3 932.7 1005.7 915.3 1097 908.8C1188.3 902.3 1279.7 906.7 1371.2 907.5C1462.7 908.3 1554.3 905.7 1645.8 909.2C1737.3 912.7 1828.7 922.3 1874.3 927.2L1920 932L1920 1081L1874.3 1081C1828.7 1081 1737.3 1081 1645.8 1081C1554.3 1081 1462.7 1081 1371.2 1081C1279.7 1081 1188.3 1081 1097 1081C1005.7 1081 914.3 1081 823 1081C731.7 1081 640.3 1081 548.8 1081C457.3 1081 365.7 1081 274.2 1081C182.7 1081 91.3 1081 45.7 1081L0 1081Z" fill="#377d5d"></path><path d="M0 990L45.7 986.2C91.3 982.3 182.7 974.7 274.2 968.7C365.7 962.7 457.3 958.3 548.8 965.2C640.3 972 731.7 990 823 990.5C914.3 991 1005.7 974 1097 975.7C1188.3 977.3 1279.7 997.7 1371.2 1005.8C1462.7 1014 1554.3 1010 1645.8 1008.8C1737.3 1007.7 1828.7 1009.3 1874.3 1010.2L1920 1011L1920 1081L1874.3 1081C1828.7 1081 1737.3 1081 1645.8 1081C1554.3 1081 1462.7 1081 1371.2 1081C1279.7 1081 1188.3 1081 1097 1081C1005.7 1081 914.3 1081 823 1081C731.7 1081 640.3 1081 548.8 1081C457.3 1081 365.7 1081 274.2 1081C182.7 1081 91.3 1081 45.7 1081L0 1081Z" fill="#2f6a4f"></path></svg>