<svg id="visual" viewBox="0 0 900 600" width="900" height="600" xmlns="http://www.w3.org/2000/svg" xmlns:xlink="http://www.w3.org/1999/xlink" version="1.1"><rect x="0" y="0" width="900" height="600" fill="#001220"></rect><path d="M0 409L21.5 408.7C43 408.3 86 407.7 128.8 397.8C171.7 388 214.3 369 257.2 375.5C300 382 343 414 385.8 415.7C428.7 417.3 471.3 388.7 514.2 388.5C557 388.3 600 416.7 642.8 429.7C685.7 442.7 728.3 440.3 771.2 427.5C814 414.7 857 391.3 878.5 379.7L900 368L900 601L878.5 601C857 601 814 601 771.2 601C728.3 601 685.7 601 642.8 601C600 601 557 601 514.2 601C471.3 601 428.7 601 385.8 601C343 601 300 601 257.2 601C214.3 601 171.7 601 128.8 601C86 601 43 601 21.5 601L0 601Z" fill="#fa7268"></path><path d="M0 427L21.5 431.8C43 436.7 86 446.3 128.8 454C171.7 461.7 214.3 467.3 257.2 467.8C300 468.3 343 463.7 385.8 464.5C428.7 465.3 471.3 471.7 514.2 472.3C557 473 600 468 642.8 462.5C685.7 457 728.3 451 771.2 451.8C814 452.7 857 460.3 878.5 464.2L900 468L900 601L878.5 601C857 601 814 601 771.2 601C728.3 601 685.7 601 642.8 601C600 601 557 601 514.2 601C471.3 601 428.7 601 385.8 601C343 601 300 601 257.2 601C214.3 601 171.7 601 128.8 601C86 601 43 601 21.5 601L0 601Z" fill="#ef5f67"></path><path d="M0 484L21.5 482.8C43 481.7 86 479.3 128.8 478.8C171.7 478.3 214.3 479.7 257.2 475.3C300 471 343 461 385.8 464.2C428.7 467.3 471.3 483.7 514.2 486.7C557 489.7 600 479.3 642.8 475.5C685.7 471.7 728.3 474.3 771.2 476.7C814 479 857 481 878.5 482L900 483L900 601L878.5 601C857 601 814 601 771.2 601C728.3 601 685.7 601 642.8 601C600 601 557 601 514.2 601C471.3 601 428.7 601 385.8 601C343 601 300 601 257.2 601C214.3 601 171.7 601 128.8 601C86 601 43 601 21.5 601L0 601Z" fill="#e34c67"></path><path d="M0 527L21.5 519.7C43 512.3 86 497.7 128.8 495.5C171.7 493.3 214.3 503.7 257.2 509.2C300 514.7 343 515.3 385.8 513C428.7 510.7 471.3 505.3 514.2 503.3C557 501.3 600 502.7 642.8 502.7C685.7 502.7 728.3 501.3 771.2 499.7C814 498 857 496 878.5 495L900 494L900 601L878.5 601C857 601 814 601 771.2 601C728.3 601 685.7 601 642.8 601C600 601 557 601 514.2 601C471.3 601 428.7 601 385.8 601C343 601 300 601 257.2 601C214.3 601 171.7 601 128.8 601C86 601 43 601 21.5 601L0 601Z" fill="#d53867"></path><path d="M0 540L21.5 543C43 546 86 552 128.8 555.7C171.7 559.3 214.3 560.7 257.2 560C300 559.3 343 556.7 385.8 554.8C428.7 553 471.3 552 514.2 551.8C557 551.7 600 552.3 642.8 554.5C685.7 556.7 728.3 560.3 771.2 559.5C814 558.7 857 553.3 878.5 550.7L900 548L900 601L878.5 601C857 601 814 601 771.2 601C728.3 601 685.7 601 642.8 601C600 601 557 601 514.2 601C471.3 601 428.7 601 385.8 601C343 601 300 601 257.2 601C214.3 601 171.7 601 128.8 601C86 601 43 601 21.5 601L0 601Z" fill="#c62368"></path></svg>